<svg xmlns="http://www.w3.org/2000/svg" width="47.404" height="41.479" viewBox="0 0 47.404 41.479">
  <path id="Icon_awesome-camera" data-name="Icon awesome-camera" d="M47.4,12.62V39.284a4.445,4.445,0,0,1-4.444,4.444H4.444A4.445,4.445,0,0,1,0,39.284V12.62A4.445,4.445,0,0,1,4.444,8.176h8.148L13.73,5.129A4.438,4.438,0,0,1,17.888,2.25h11.62a4.438,4.438,0,0,1,4.157,2.879l1.148,3.046H42.96A4.445,4.445,0,0,1,47.4,12.62ZM34.812,25.952A11.11,11.11,0,1,0,23.7,37.062,11.119,11.119,0,0,0,34.812,25.952Zm-2.963,0A8.148,8.148,0,1,1,23.7,17.8,8.16,8.16,0,0,1,31.85,25.952Z" transform="translate(0 -2.25)"/>
</svg>
