<svg xmlns="http://www.w3.org/2000/svg" width="52.252" height="40.632" viewBox="0 0 52.252 40.632">
  <path id="Icon_awesome-home" data-name="Icon awesome-home" d="M25.432,12.795,8.708,26.569V41.435a1.451,1.451,0,0,0,1.451,1.451l10.165-.026a1.451,1.451,0,0,0,1.444-1.451V32.727a1.451,1.451,0,0,1,1.451-1.451h5.805a1.451,1.451,0,0,1,1.451,1.451V41.4a1.451,1.451,0,0,0,1.451,1.456l10.161.028a1.451,1.451,0,0,0,1.451-1.451V26.559L26.82,12.795A1.106,1.106,0,0,0,25.432,12.795Zm26.417,9.362-7.583-6.251V3.342a1.088,1.088,0,0,0-1.088-1.088H38.1a1.088,1.088,0,0,0-1.088,1.088V9.928L28.888,3.247a4.354,4.354,0,0,0-5.533,0L.394,22.157A1.088,1.088,0,0,0,.249,23.69L2.562,26.5a1.088,1.088,0,0,0,1.534.148L25.432,9.076a1.106,1.106,0,0,1,1.388,0L48.157,26.649A1.088,1.088,0,0,0,49.69,26.5L52,23.692a1.089,1.089,0,0,0-.154-1.536Z" transform="translate(0.001 -2.254)" />
</svg>
