<svg xmlns="http://www.w3.org/2000/svg" width="22.391" height="22.546" viewBox="0 0 22.391 22.546">
  <path id="Icon_awesome-phone-alt" data-name="Icon awesome-phone-alt" d="M21.753,15.933l-4.9-2.114a1.045,1.045,0,0,0-1.225.3l-2.169,2.669a16.267,16.267,0,0,1-7.749-7.8L8.362,6.8a1.059,1.059,0,0,0,.3-1.233L6.564.639a1.055,1.055,0,0,0-1.2-.612L.813,1.084A1.055,1.055,0,0,0,0,2.114,20.361,20.361,0,0,0,20.293,22.547a1.051,1.051,0,0,0,1.023-.819l1.05-4.58a1.072,1.072,0,0,0-.613-1.215Z" transform="translate(0 0)"/>
</svg>
